# xmcd
#
# Track frame offsets:
#	150
#	20171
#	41159
#	56192
#	77713
#	91142
#	108375
#	122313
#	137220
#	149654
#	168854
#	188211
#	204310
#	221085
#	242572
#
# Disc length: 3408 seconds
# Revision: 2
# Processed by: cddbd v1.5.2PL0 Copyright (c) Steve Scherf et al.
# Submitted via: dBpowerAMP V12.0
#
DISCID=d90d4e0f
DTITLE=Miranda Lambert - Four The Record
DYEAR=2011
DGENRE=Country
TTITLE0=All Kinds Of Kinds
TTITLE1=Fine Tune
TTITLE2=Fastest Girl In Town
TTITLE3=Safe
TTITLE4=Mama's Broken Heart
TTITLE5=Dear Diamond
TTITLE6=Same Old You
TTITLE7=Baggage Claim
TTITLE8=Easy Living
TTITLE9=Over You
TTITLE10=Look At Miss Ohio
TTITLE11=Better In The Long Run
TTITLE12=Nobody's Fool
TTITLE13=Oklahoma Sky
TTITLE14=Hurts To Think (Bonus Track)
EXTD=
EXTT0=
EXTT1=
EXTT2=
EXTT3=
EXTT4=
EXTT5=
EXTT6=
EXTT7=
EXTT8=
EXTT9=
EXTT10=
EXTT11=
EXTT12=
EXTT13=
EXTT14=
PLAYORDER=
